# xmcd CD database file
#
# Track frame offsets:
#	150
#	21084
#	36882
#	54792
#	66784
#	92492
#	108445
#	123640
#	137474
#	154341
#	168707
#	184827
#	199600
#	214211
#	244305
#	258503
#	273612
#
# Disc length: 3992 seconds
#
# Revision: 1
# Processed by: cddbd v1.5.1PL0 Copyright (c) Steve Scherf et al.
# Submitted via: CDex 1.51
#
DISCID=f80f9611
DTITLE=George McAnthony - Wild Horse Running
DYEAR=2002
DGENRE=Country
TTITLE0=Wild Horse Running
TTITLE1=Heartland
TTITLE2=You've Got A Friend - (Carol King)
TTITLE3=Bluegrass Saturday Night
TTITLE4=Peace Medley - Were Have All The .. - My Sweet Lord - Mr. Tambourine Man
TTITLE5=Rainbow
TTITLE6=Giving Life To A Melody
TTITLE7=Take Me Home, Country Roads - (J. Denver)
TTITLE8=Easy Going Man
TTITLE9=Blue Without You
TTITLE10=Leaving On A Jet Plane - (J. Denver)
TTITLE11=The River
TTITLE12=Living In The Country
TTITLE13=Western Medley - Wanderin' Star - My Rifle, My Pony And Me - Song Sung blue
TTITLE14=Promise To A Child
TTITLE15=Achy Breaky Heart - (L.V. tress)
TTITLE16=Live Medley - Lucille - Me and Bobby McGee - Hello Mary Loo
EXTD=YEAR: 2002
EXTT0=
EXTT1=
EXTT2=
EXTT3=
EXTT4=
EXTT5=
EXTT6=
EXTT7=
EXTT8=
EXTT9=
EXTT10=
EXTT11=
EXTT12=
EXTT13=
EXTT14=
EXTT15=
EXTT16=
PLAYORDER=
